<svg xmlns="http://www.w3.org/2000/svg" fill="none" viewBox="0 0 33 32"><g clip-path="url(#a)"><path fill="#263E02" d="M5.844 0h21.312C30.384 0 33 2.602 33 5.812v20.376C33 29.398 30.384 32 27.156 32H5.844C2.616 32 0 29.398 0 26.188V5.812C0 2.602 2.616 0 5.844 0Z"/><path fill="#99E83F" d="M7.138 22.44V8.371c0-.102.044-.154.133-.154.236 0 .516-.003.84-.01a454.184 454.184 0 0 1 2.248-.045c.42-.007.837-.01 1.25-.01 1.122 0 2.067.139 2.834.417a4.92 4.92 0 0 1 1.849 1.123c.444.44.788.969 1.007 1.553.207.568.312 1.168.31 1.772 0 1.174-.273 2.143-.82 2.906a4.626 4.626 0 0 1-2.213 1.662 8.853 8.853 0 0 1-3.1.518c-.324 0-.553-.004-.685-.011-.133-.007-.332-.011-.598-.011v4.337a.175.175 0 0 1-.2.198h-2.7c-.104 0-.155-.058-.155-.176Zm3.055-11.58v4.557c.191.015.369.022.531.022h.73a5.247 5.247 0 0 0 1.583-.22c.44-.13.831-.382 1.13-.727.287-.337.431-.807.431-1.409.012-.426-.1-.846-.32-1.21a2.062 2.062 0 0 0-.964-.782 4.12 4.12 0 0 0-1.616-.275c-.354 0-.668.003-.94.01a6.02 6.02 0 0 0-.565.033ZM25.822 20.437v1.805c0 .162-.06.257-.177.286-.29.091-.587.165-.886.22-.35.063-.706.092-1.062.089-.96 0-1.712-.25-2.258-.749-.547-.499-.82-1.299-.82-2.4v-5.46h-1.306c-.118 0-.177-.066-.177-.198v-2.18c0-.117.067-.176.2-.176h1.306c.014-.25.033-.54.055-.87a25.638 25.638 0 0 1 .188-1.794.38.38 0 0 1 .067-.121.235.235 0 0 1 .11-.077l2.635-.33c.057-.01.095-.01.121.006.03.015.034.053.034.126-.03.338-.052.796-.067 1.376l-.044 1.684H25.8c.088 0 .133.059.133.176v2.224a.136.136 0 0 1-.111.154h-2.103v4.712c0 .499.085.855.254 1.067.17.213.483.32.941.32a5.886 5.886 0 0 0 .73-.044.142.142 0 0 1 .122.01c.037.023.056.07.056.144Z"/></g><defs><clipPath id="a"><path fill="#fff" d="M0 0h33v32H0z"/></clipPath></defs></svg>