<svg xmlns="http://www.w3.org/2000/svg" fill="none" viewBox="0 0 30 32"><g clip-path="url(#a)"><path fill="#39A4CB" d="M4.852.034c.07-.052.154-.031.232-.031h21.025c.984 0 1.679.701 1.681 1.686 0 1.104.008 2.21.01 3.311a.87.87 0 0 1 .027.26v.871c-.003 3.77.093 7.543.033 11.313-.023 1.555-.02 3.11-.033 4.663-.003.382-.037.413-.427.418-6.06.097-12.123.019-18.185.042-1.33.006-2.658 0-3.988 0-.127 0-.263.021-.38-.057-.091-.131-.062-.28-.062-.425V.45c0-.144-.03-.293.067-.421v.005Z"/><path fill="#36687E" d="M4.852 22.491c.102 0 .203.006.305.006 7.004 0 14.007.002 21.011-.006.474 0 .95-.036 1.427-.026.187.003.164-.115.164-.23 0-1.346-.026-2.691.005-4.035.063-2.536.044-5.07.018-7.607-.018-1.78-.005-3.561-.023-5.339 0-.083-.029-.175.041-.248.651 0 1.302.01 1.95-.006.208-.005.245.066.245.257-.005 8.679-.003 17.355-.003 26.034 0 .18 0 .363.01.544.006.12-.03.18-.156.168-.041-.006-.085 0-.13 0H4.417c-.861 0-1.499-.448-1.707-1.2a1.66 1.66 0 0 1-.055-.452c-.002-2.152-.008-4.302-.013-6.454-.052-.107.042-.144.102-.18.64-.393 1.278-.791 1.926-1.176.055-.031.112-.068.182-.047v-.003Z"/><path fill="#7FC4DD" d="m4.852 22.491-2.067 1.252c-.06.036-.127.068-.146.149-.226.044-.395.199-.585.311-.622.367-1.242.741-1.856 1.121-.177.11-.208.044-.195-.123.005-.05 0-.102 0-.152C.005 17.763.005 10.472 0 3.183c0-.185.062-.288.219-.382 1.382-.83 2.759-1.667 4.138-2.5.16-.097.313-.21.495-.264v22.151c0 .102-.003.204-.005.306l.005-.003Z"/><path fill="#FEFEFE" d="M22.712 5.278a4525.09 4525.09 0 0 0 0 11.996c0 .17-.042.222-.216.22h-.1c-.788-.011-1.582-.011-2.37 0-.204-.035-.204-.155-.204-.566V9.315a2.855 2.855 0 0 0-.213.6c-.646 2.455-1.291 4.913-1.932 7.372-.026.107-.062.172-.132.201-.013.003-.026.003-.042.003-.833-.005-1.663-.008-2.494.003-.184 0-.244-.06-.289-.228-.64-2.459-1.283-4.917-1.929-7.373a3.022 3.022 0 0 0-.216-.6v7.614c0 .387-.19.581-.57.581-.622 0-1.244-.005-1.863.006-.175 0-.216-.053-.216-.22.01-1.65.013-3.302.01-4.951 0-2.34-.003-4.681-.01-7.022 0-.133.018-.206.098-.238a.394.394 0 0 1 .151-.02c1.135.01 2.27.01 3.403 0 .187 0 .257.054.302.237.77 3.116 1.546 6.229 2.321 9.342l.032.125c.018.066.01.147.101.217.12-.431.237-.845.346-1.261.742-2.823 1.484-5.645 2.22-8.467.027-.097.06-.15.123-.173a.337.337 0 0 1 .128-.018c1.111.005 2.225.008 3.337-.003.19 0 .224.063.224.236ZM16.324 26.712c.273-.634.525-1.21.765-1.791.065-.16.148-.218.32-.21.3.016.601.006.937.006-.226.44-.434.845-.643 1.248-.242.472-.484.94-.734 1.409a.726.726 0 0 0-.088.353c.002.5-.006 1.003.005 1.503.003.15-.042.21-.193.204a16.36 16.36 0 0 0-.802 0c-.135.005-.171-.047-.169-.178.006-.487 0-.974.006-1.46a.951.951 0 0 0-.112-.456c-.43-.814-.852-1.634-1.281-2.448-.076-.141-.063-.186.104-.18.281.007.565.01.846 0 .14-.006.206.05.255.172.206.495.422.987.633 1.482.041.1.086.199.15.346ZM14.616 29.275c-.442-1.472-.885-2.946-1.322-4.42-.031-.107-.086-.146-.198-.144a38.45 38.45 0 0 1-1.234 0c-.12 0-.177.035-.21.158-.128.476-.271.947-.407 1.421-.275.969-.546 1.94-.83 2.909-.057.19-.008.24.174.235.253-.01.505-.013.758-.005.138.005.187-.055.213-.178.052-.24.125-.476.177-.717.026-.118.084-.152.196-.147.244.008.492 0 .736 0 .347 0 .569.168.664.503.102.361.343.54.721.54.151 0 .305-.003.456 0 .122.002.143-.043.106-.158v.003Zm-1.817-1.75c-.223-.007-.447-.002-.669 0-.086 0-.14-.012-.117-.12l.43-1.835h.044c.099.406.2.81.3 1.215.046.196.088.395.135.592.028.115-.003.154-.125.151l.002-.002ZM22.227 29.267c-.44-1.466-.88-2.935-1.314-4.404-.032-.11-.081-.154-.196-.151-.208.007-.419 0-.63 0-.187 0-.377.013-.562-.003-.174-.016-.237.058-.278.217-.13.492-.274.98-.414 1.466-.271.948-.54 1.898-.815 2.846-.034.12-.044.194.117.189.29-.008.578-.006.867 0 .099 0 .138-.045.159-.137.057-.248.125-.492.182-.74.023-.108.065-.16.185-.16.382.005.765.002 1.148-.005.117 0 .146.06.172.151.062.23.132.461.187.694.034.142.091.21.247.204.273-.01.55-.008.823 0 .138.003.159-.044.12-.167h.002Zm-1.801-1.741c-.232-.005-.46-.003-.693 0-.09 0-.132-.024-.106-.128.145-.605.283-1.21.427-1.815h.057c.146.6.291 1.202.44 1.804.026.11-.018.142-.123.139h-.002Z"/></g><defs><clipPath id="a"><path fill="#fff" d="M0 0h30v32H0z"/></clipPath></defs></svg>