<svg xmlns="http://www.w3.org/2000/svg" fill="none" viewBox="0 0 32 32"><g fill="#fff" clip-path="url(#a)"><path d="M11.749 29.284c-.169-.027-.171.125-.215.216-.182.375-.353.758-.555 1.189-.07-.171-.11-.291-.166-.407-.313-.66-.713-1.232-1.364-1.622-1.858-1.111-3.364-2.663-4.983-4.07-.13-.114-.248-.239-.385-.342-.176-.133-.383-.193-.57-.05-.438.334-.922.266-1.372.112a3.089 3.089 0 0 1-1.506-1.145c-.609-.847-.303-1.857.666-2.22.272-.102.236-.256.145-.455-.328-.727-.7-1.434-.898-2.216-.556-2.204-.606-4.43-.303-6.67.25-1.85.78-3.614 1.696-5.245C3.778 3.094 6.528 1.083 10.242.474c5.015-.82 9.815-.15 14.319 2.254 2.675 1.43 4.759 3.482 6.162 6.2.502.978.75 2.002.781 3.09.075 2.567-.368 5.074-.907 7.57a1.436 1.436 0 0 0-.043.3c.003.205.036.34.325.34.558 0 1.058.634 1.075 1.344a2.731 2.731 0 0 1-.683 1.891c-.31.359-.78.414-1.217.484-.508.082-1.037.28-1.492-.168-.094-.092-.157-.032-.217.05-.697.948-1.6 1.646-2.639 2.192-.45.236-.744.671-1.07 1.054-.244.284-.47.582-.723.902-.067-.24.041-.445.022-.676-.462.178-.936.219-1.41.255-.255.02-.447.168-.63.32-.515.423-.963.91-1.35 1.453-.077.109-.123.243-.277.337.017-.344.034-.664.056-1.07-.768.512-1.182 1.246-1.713 1.992a5.069 5.069 0 0 0-.195-1.788c-.436 1.044-1.122 1.877-1.61 2.928a10.935 10.935 0 0 0-.666-1.824l-.845 1.555c-.204-.734-.717-1.122-1.275-1.519l-.76 2.046c-.361-1.033-.8-1.957-1.528-2.71.18-.096.272.056.373.15.402.368.688.82.967 1.282.065.106.108.226.221.34.166-.35.265-.708.364-1.064.03-.11.053-.222.091-.33.07-.192.18-.216.337-.091.303.245.601.493.897.746.313.267.342.264.544-.109.164-.3.349-.592.522-.887.046-.078.09-.183.195-.164.096.02.132.12.154.212.077.324.214.625.361.924.07.142.147.214.27.052.409-.534.885-1.022 1.135-1.665.017-.043.031-.086.053-.125.048-.089.082-.211.195-.219.125-.007.144.128.185.217.084.188.166.378.24.568.083.207.181.202.323.058.31-.32.633-.628.98-.91.401-.325.575-.265.69.28.202-.184.366-.388.503-.595.462-.693 1.13-.972 1.925-1.008.348-.017.57-.193.75-.465.053-.079.072-.226.202-.19.097.024.085.15.1.238.004.034.004.07.052.109.137-.087.245-.222.358-.342a4.961 4.961 0 0 1 1.06-.869c.87-.517 1.565-1.222 2.148-2.037.272-.383.558-.549 1.008-.344.151.07.253.064.238-.166-.046-.76.091-.936.83-1.131.087-.022.176-.036.3-.096-.216-.073-.399-.12-.579-.176-.349-.108-.395-.265-.132-.527.1-.101.16-.147.062-.296-.074-.113.046-.214.145-.274.175-.106.202-.253.18-.44-.036-.299-.017-.6.099-.879.404-.962.5-1.992.633-3.01.132-1.008.122-2.026.16-3.043.07-1.848-.485-3.477-1.491-5.002-1.4-2.125-3.26-3.715-5.493-4.9-2.201-1.166-4.564-1.801-7.018-2.126A21.156 21.156 0 0 0 13.106.83c-1.824.082-3.617.354-5.332 1.02-1.54.6-2.791 1.603-3.852 2.842C2.105 6.812 1.174 9.32.866 12.059c-.243 2.146-.156 4.29.46 6.388.166.563.392 1.102.683 1.605.178.305.296.637.32.96.017.26 0 .476.17.71.119.163-.115.435-.468.623.045-.005-.022.01-.005.007.527-.077.878.091.943.664.024.219.108.318.356.291.474-.05.876.08 1.129.537.132.238.324.44.483.666.046.065.092.144.169.166.454.14.707.53 1.027.83 1.035.967 2.03 1.992 3.284 2.68.609.335 1.146.7 1.437 1.353.077.173.183.187.293.014.087-.135.173-.274.298-.373.138-.106.275-.144.299.106l.005-.002Z"/><path fill-rule="evenodd" d="m15.324 25.824-.023.032c-.184.261-.365.517-.728.547-.659.053-1.121-.39-1.186-1.171-.022-.264-.018-.528-.014-.793.006-.352.011-.704-.044-1.055-.082-.53-.13-.592-.645-.657-.116-.015-.234-.026-.35-.036-.235-.02-.47-.042-.7-.101-1.149-.298-1.591-1.172-1.808-2.223a3.75 3.75 0 0 1-.072-.715c-.012-1.26.49-1.836 1.735-1.966a7.127 7.127 0 0 1 1.879.066c.44.07.789.276 1.046.642l.159.228c.188.271.376.542.582.8.275.34.462.336.742-.008a6.36 6.36 0 0 0 .529-.758c.337-.57.794-.91 1.48-.957l.076-.006c.547-.037 1.09-.073 1.634-.009.994.118 1.389.484 1.562 1.473.122.697.062 1.388-.231 2.045-.335.753-.917 1.174-1.73 1.275-.226.029-.455.05-.681.065-.717.046-1.052.351-1.167 1.056-.065.397-.058.797-.048 1.196.007.289-.015.568-.137.837-.174.37-.414.657-.852.705-.46.05-.686-.065-1.006-.517l-.002.005Zm1.561-4.798c.225-.026.362.075.506.24.442.51 1.208.492 1.655-.011.178-.198.3-.429.378-.681a1.07 1.07 0 0 1 .317-.51c-.165-.02-.325-.042-.48-.063-.341-.047-.665-.09-.99-.106-.77-.038-1.094.517-1.386 1.13l-.002.001h.002Zm-4.942-.85c-.171.02-.348.042-.534.061v.002c.227.168.29.352.353.541l.003.01c.08.239.202.46.37.65.422.47 1.182.508 1.615.05.157-.165.299-.315.561-.307-.037-.056-.073-.107-.108-.156-.076-.106-.145-.202-.188-.309-.193-.479-.594-.63-1.042-.63-.336.002-.67.043-1.03.087Z" clip-rule="evenodd"/></g><defs><clipPath id="a"><path fill="#fff" d="M0 0h32v32H0z"/></clipPath></defs></svg>