<svg xmlns="http://www.w3.org/2000/svg" fill="none" viewBox="0 0 24 24"><path fill="#5B5B5B" d="M15.942 10.875a3.375 3.375 0 1 1 0 2.25h-3.009a3.375 3.375 0 0 1-3.77 2.2l-1.618 2.861a3.375 3.375 0 1 1-1.893-1.22l1.553-2.749a3.375 3.375 0 0 1 0-4.434L5.652 7.035a3.375 3.375 0 1 1 1.893-1.22l1.619 2.861a3.375 3.375 0 0 1 3.769 2.2h3.009ZM3.75 3.75a1.125 1.125 0 1 0 2.25 0 1.125 1.125 0 0 0-2.25 0Zm6 7.125a1.125 1.125 0 1 0 0 2.25 1.125 1.125 0 0 0 0-2.25Zm9.375 0a1.125 1.125 0 1 0 0 2.25 1.125 1.125 0 0 0 0-2.25Zm-14.25 8.25a1.125 1.125 0 1 0 0 2.25 1.125 1.125 0 0 0 0-2.25Z"/></svg>