<svg xmlns="http://www.w3.org/2000/svg" fill="none" viewBox="0 0 32 32"><g clip-path="url(#a)"><path fill="#272528" d="M16.017 31.365c8.657 0 15.675-6.871 15.675-15.348S24.674.668 16.017.668.342 7.54.342 16.017 7.36 31.365 16.017 31.365Z"/><path fill="#00B8C3" d="M15.989 30.652C8.182 30.629 1.623 24.528 1.37 16.74c-.027-.848.371-1.344.893-1.457.718-.154 1.192.193 1.443.846.282.735.514 1.286 1.158 1.244.2-.013.347-.064.458-.155.304-.251.313-.746.351-1.1.15-1.388.78-2.62 2.467-2.663 1.732-.044 2.57 1.196 2.752 3.38.085 1.03.02 3.503-.026 4.917-.014.454-.106 1.293-.081 1.614.066.86.54 1.147.998 1.131.574-.02.907-.49.92-1.035.012-.512-.092-1.19-.184-1.737a35.102 35.102 0 0 1-.389-3.27c-.12-1.787-.194-3.116.24-4.724.422-1.56 1.59-2.553 3.184-2.53 3.312.046 3.868 4.297 3.466 6.715-.087.52-.129 1.106.294 1.439.218.171.86.222 1.098-.415.25-.669-.211-1.793-.035-3.06.17-1.216 1.794-1.155 2.15.08.337 1.167.315 2.566.181 3.72-.081.703-.309 1.643.407 2.072.243.145.482.163.668.07.304-.151.336-.632.348-.883.06-1.247-.256-2.74-.23-4.032.039-1.904.615-3.583 2.454-3.654 1.798-.07 2.175 1.393 2.289 2.347.106.892.144 1.279.494 1.302.884.059.198-1.626 1.033-1.607.373.008.434.417.434.743.002 8.031-6.517 14.591-14.617 14.614Zm7.806-28.616A15.949 15.949 0 0 0 15.99 0c-3.983 0-7.83 1.493-10.771 4.208a14.403 14.403 0 0 0-3.19 4.003c-4.3 7.714-1.54 17.464 6.177 21.762 7.716 4.298 17.468 1.538 21.767-6.175 4.3-7.714 1.54-17.464-6.177-21.762Z"/></g><defs><clipPath id="a"><path fill="#fff" d="M0 0h32v32H0z"/></clipPath></defs></svg>