<svg xmlns="http://www.w3.org/2000/svg" fill="none" viewBox="0 0 32 32"><path fill="#3E94DA" d="M28.267 2.667H3.733c-.59 0-1.066.476-1.066 1.066v24.534c0 .59.476 1.066 1.066 1.066h24.534c.59 0 1.066-.476 1.066-1.066V3.733c0-.59-.476-1.066-1.066-1.066ZM10.577 25.39H6.62V12.663h3.957V25.39ZM8.6 10.923a2.293 2.293 0 1 1 0-4.586 2.293 2.293 0 0 1 0 4.586ZM25.39 25.39h-3.953V19.2c0-1.477-.027-3.373-2.057-3.373-2.057 0-2.373 1.606-2.373 3.266v6.297h-3.95V12.663h3.793v1.74h.053c.527-1 1.817-2.056 3.744-2.056 4.006 0 4.743 2.636 4.743 6.063v6.98Z"/></svg>