<svg xmlns="http://www.w3.org/2000/svg" fill="none" viewBox="0 0 24 24"><path fill="#fff" fill-rule="evenodd" d="M19.428 4.116a1.5 1.5 0 0 1 1.504.203 1.486 1.486 0 0 1 .548 1.407l-2.257 13.621c-.219 1.314-1.667 2.067-2.878 1.413-1.013-.548-2.518-1.391-3.871-2.271-.677-.441-2.75-1.852-2.495-2.856.219-.858 3.702-4.084 5.692-6.002.781-.753.425-1.188-.498-.495-2.29 1.72-5.968 4.338-7.184 5.074-1.073.65-1.632.76-2.3.65-1.22-.202-2.352-.515-3.276-.896-1.247-.515-1.187-2.222 0-2.719l17.015-7.129Z" clip-rule="evenodd"/></svg>