<svg xmlns="http://www.w3.org/2000/svg" fill="none" viewBox="0 0 138 65"><path fill="#fff" d="m19.7 16.581 14.874 1.267 1.839-9.295-6.587-2.202-2.394.908-.35 2.27-2.22-.554-.436-4.708-4.964-.868-5.199.868-.413 4.808-2.404.777V8.167L9.212 7.01 2.727 8.975l2.142 9.05L19.7 16.581Zm-1.433-6.856 1.3-1.74 1.329 1.726.386 3.633h-3.429l.414-3.62ZM6.147 19.973 5.488 28.6l14.124 3.633 14.28-4.246-.61-8.064-13.651-1.085-13.486 1.135Zm30.302 9.88-16.771 4.591L2.91 30.417l-.97 7.642 17.737 6.888 17.88-7.17-1.109-7.923Z"/><path fill="#2280CD" d="M55.74 5.057 80.1 2.265l-2.298 43.822-20.246-1.258L55.74 5.057Z"/><path fill="#fff" d="M52.794 8.167h4.826L53.88 39.821h-7.203L43.055 8.167h4.743l2.583 25.574h.124l2.29-25.574ZM77.968 12.853c0-2.028.568-3.4 1.705-4.114.888-.575 2.42-.863 4.596-.863 3.527 0 5.552.892 6.076 2.675.189.753.274 1.527.253 2.302v22.281c0 2.55-1.013 4.111-3.038 4.686v.205c0 .272 1.011.413 3.038.413v2.915H88.35c-2.638 0-3.956-.822-3.952-2.466v-.78c-2.219 0-3.788-.274-4.707-.822-1.161-.715-1.743-2.098-1.746-4.15l.023-22.282Zm7.813 22.281v-22.28c0-.55-.101-.91-.312-1.05a2.174 2.174 0 0 0-1.186-.227 2.295 2.295 0 0 0-1.204.227c-.226.15-.336.5-.336 1.05v22.28c0 .55.11.908.336 1.05.373.18.79.257 1.204.222.408.038.82-.039 1.186-.223.22-.154.321-.5.321-1.049h-.009ZM100.76 8.167h4.785V35.34a9.48 9.48 0 0 1-.207 2.098c-.254 1.15-1.06 1.931-2.418 2.343a14.848 14.848 0 0 1-3.617.327c-3.526 0-5.519-.89-5.975-2.67a8.917 8.917 0 0 1-.248-2.098V8.167h4.785v26.518c-.038.436.034.874.206 1.276a1.407 1.407 0 0 0 1.21.454c.969 0 1.456-.572 1.456-1.725l.023-26.523ZM121.411 39.82h-4.867l-.708-7.89h-3.787l-.832 7.89h-4.284l3.677-31.657h7.156l3.645 31.658Zm-7.354-27.298-1.539 15.252h2.914l-1.375-15.252ZM122.951 39.82V8.167h7.354a8.998 8.998 0 0 1 2.33.25c1.857.49 2.785 2.449 2.785 5.876v19.81c0 2.06-.332 3.498-.997 4.319-.748.932-2.127 1.398-4.137 1.398h-7.335Zm4.784-27.875v24.093h1.379c.273.03.549-.024.788-.157s.43-.337.545-.583c.138-.537.194-1.09.166-1.644V14.415c0-1.65-.486-2.473-1.457-2.47h-1.421Z"/><path fill="#000100" d="M62.198 28.06h4.743v7.075c0 .55.11.908.331 1.049.375.181.793.258 1.21.223.408.038.819-.039 1.185-.223.207-.154.312-.5.312-1.049v-3.782a4.844 4.844 0 0 0-.5-2.298 9.747 9.747 0 0 0-.998-1.521c-.138-.19-1.137-1.402-2.997-3.633a22.898 22.898 0 0 1-2.66-3.7c-.418-.793-.626-1.971-.626-3.533v-3.96c0-1.997.569-3.34 1.705-4.027.861-.52 2.393-.781 4.596-.781 3.555 0 5.567.891 6.035 2.674.184.754.267 1.528.248 2.303v6.388h-4.816v-6.411c0-.55-.106-.908-.313-1.05a2.174 2.174 0 0 0-1.186-.226 2.322 2.322 0 0 0-1.209.227c-.22.148-.33.498-.33 1.049v3.655a4.05 4.05 0 0 0 .542 2.057c.3.494.638.965 1.011 1.408.996 1.21 1.981 2.421 2.955 3.632a21.577 21.577 0 0 1 2.62 3.696c.52 1.164.762 2.43.708 3.701v4.318c0 2.001-.569 3.344-1.705 4.028-.858.52-2.39.78-4.596.78-3.555 0-5.566-.89-6.035-2.67a8.91 8.91 0 0 1-.248-2.301l.018-7.097Z"/><path fill="#2280CD" d="M13.88 55.243c0-.353.068-.685.203-.994a2.606 2.606 0 0 1 1.362-1.363c.31-.135.641-.202.994-.202h3.916v1.708H16.44a.847.847 0 0 0-.785.517.89.89 0 0 0 .178.946c.08.076.17.136.274.18a.845.845 0 0 0 .333.065h1.708c.354 0 .685.067.994.202.314.13.585.313.816.547.234.23.416.502.547.816.135.31.202.64.202.994 0 .353-.067.684-.202.994a2.543 2.543 0 0 1-1.363 1.362 2.46 2.46 0 0 1-.994.203h-3.79V59.51h3.79a.847.847 0 0 0 .786-1.184.788.788 0 0 0-.185-.268.789.789 0 0 0-.267-.185.845.845 0 0 0-.334-.065H16.44a2.46 2.46 0 0 1-.994-.203 2.677 2.677 0 0 1-.815-.547 2.678 2.678 0 0 1-.547-.816 2.502 2.502 0 0 1-.203-1Zm26.954 5.1a4.346 4.346 0 0 1-1.334.785 4.363 4.363 0 0 1-2.701.114 4.484 4.484 0 0 1-1.054-.44 4.583 4.583 0 0 1-1.589-1.59c-.19-.33-.339-.68-.446-1.053a4.42 4.42 0 0 1-.155-1.173c0-.404.052-.795.155-1.172.107-.377.256-.728.446-1.053a4.503 4.503 0 0 1 1.59-1.59c.329-.194.68-.343 1.053-.446.377-.107.767-.16 1.172-.16.528 0 1.038.09 1.53.273.492.179.936.44 1.333.786l-.905 1.488a2.523 2.523 0 0 0-.887-.62 2.683 2.683 0 0 0-1.07-.22c-.378 0-.731.072-1.06.215a2.76 2.76 0 0 0-.863.583c-.246.242-.44.53-.583.863-.143.33-.215.68-.215 1.053 0 .373.072.725.215 1.054a2.76 2.76 0 0 0 1.446 1.44c.329.143.682.214 1.06.214.372 0 .73-.071 1.07-.214a2.59 2.59 0 0 0 .887-.625l.905 1.488Zm14.89.875h-1.708v-8.534h1.708V56.1h3.41v-3.416h1.708v8.534h-1.708v-3.41h-3.41v3.41Zm27.257-4.232a4.475 4.475 0 0 1-.601 2.226c-.19.326-.421.623-.69.893-.27.27-.568.502-.894.696-.325.19-.676.337-1.053.44-.377.108-.768.161-1.172.161a4.485 4.485 0 0 1-2.226-.601 4.583 4.583 0 0 1-1.59-1.589c-.19-.33-.338-.68-.445-1.053a4.42 4.42 0 0 1-.155-1.173c0-.404.051-.795.155-1.172.107-.377.255-.728.446-1.053.194-.326.426-.623.696-.893.27-.27.568-.5.893-.69a4.485 4.485 0 0 1 2.226-.601c.404 0 .795.053 1.172.16a4.348 4.348 0 0 1 1.946 1.13 4.342 4.342 0 0 1 1.13 1.946c.108.378.162.769.162 1.173Zm-1.697 0c0-.372-.07-.724-.214-1.053a2.673 2.673 0 0 0-.583-.863 2.672 2.672 0 0 0-.863-.583 2.617 2.617 0 0 0-1.053-.214c-.377 0-.73.071-1.06.214-.329.143-.617.337-.863.583-.245.242-.44.53-.583.863a2.62 2.62 0 0 0-.214 1.053c0 .373.071.725.214 1.054a2.761 2.761 0 0 0 1.446 1.44c.33.143.683.214 1.06.214.373 0 .724-.071 1.053-.214.333-.143.621-.337.863-.583.246-.246.44-.532.583-.857.143-.33.215-.68.215-1.054Zm23.371 0c0 .405-.053.796-.161 1.173a4.45 4.45 0 0 1-.44 1.053c-.19.325-.42.623-.69.893a4.6 4.6 0 0 1-.893.696c-.325.19-.676.337-1.053.44-.377.108-.768.161-1.173.161a4.484 4.484 0 0 1-2.226-.601 4.583 4.583 0 0 1-1.588-1.589c-.19-.33-.34-.68-.447-1.053a4.42 4.42 0 0 1-.155-1.173c0-.404.052-.795.155-1.172.107-.377.256-.728.447-1.053.194-.326.426-.623.696-.893.27-.27.567-.5.892-.69a4.484 4.484 0 0 1 2.226-.601c.405 0 .796.053 1.173.16a4.339 4.339 0 0 1 1.946 1.13 4.318 4.318 0 0 1 1.13 1.946c.108.378.161.769.161 1.173Zm-1.696 0c0-.372-.071-.724-.214-1.053a2.675 2.675 0 0 0-.583-.863 2.675 2.675 0 0 0-.863-.583 2.623 2.623 0 0 0-1.054-.214c-.377 0-.73.071-1.06.214a2.76 2.76 0 0 0-.862.583c-.246.242-.44.53-.583.863a2.62 2.62 0 0 0-.215 1.053c0 .373.072.725.215 1.054a2.76 2.76 0 0 0 1.446 1.44c.33.143.682.214 1.059.214.373 0 .724-.071 1.054-.214.333-.143.621-.337.863-.583.246-.246.44-.532.583-.857.143-.33.214-.68.214-1.054Zm20.984 4.232h-5.975v-8.534h1.708v6.826h4.267v1.708Z"/></svg>