<svg aria-hidden="true" style="position: absolute; width: 0; height: 0; overflow: hidden;" version="1.1" xmlns="http://www.w3.org/2000/svg" xmlns:xlink="http://www.w3.org/1999/xlink">
<defs>
<symbol id="icon-texture" viewBox="0 0 32 32">
<path d="M5.92 2.723c-0.832 0.103-1.509 0.441-2.133 1.064-0.653 0.655-0.965 1.307-1.072 2.24-0.031 0.28-0.045 4.225-0.035 10.32l0.015 9.867 0.123 0.4c0.377 1.247 1.346 2.206 2.571 2.564l0.027 0.007 0.425 0.123h20.32l0.425-0.123c1.261-0.365 2.234-1.338 2.592-2.572l0.007-0.027 0.123-0.425v-20.32l-0.123-0.425c-0.365-1.252-1.324-2.22-2.544-2.59l-0.027-0.007-0.4-0.123-9.973-0.008c-5.485-0.004-10.129 0.012-10.32 0.036zM26.2 5.507c0.107 0.080 0.248 0.224 0.316 0.32l0.124 0.173v20l-0.124 0.173c-0.093 0.121-0.197 0.226-0.312 0.317l-0.004 0.003-0.192 0.147h-20.008l-0.173-0.124c-0.121-0.093-0.226-0.197-0.317-0.312l-0.003-0.004-0.147-0.192-0.015-9.871c-0.009-5.429-0.003-9.945 0.013-10.035 0.037-0.207 0.339-0.565 0.572-0.68 0.161-0.080 1.020-0.087 10.127-0.075l9.951 0.012 0.192 0.147zM8.551 7.524l-0.008 0.001c0.084-0.017 0.171-0.027 0.261-0.027 0.342 0 0.654 0.134 0.883 0.352 0.425 0.393 0.42 0.353 0.42 3.349 0 2.919 0.003 2.888-0.34 3.269l-0.001 0.001c-0.228 0.258-0.562 0.42-0.934 0.42-0.011 0-0.022-0-0.032-0-0.391 0-0.715-0.141-0.967-0.421-0.343-0.381-0.34-0.351-0.34-3.269 0-2.915-0.003-2.889 0.336-3.264l0.002-0.002c0.176-0.214 0.427-0.364 0.72-0.41zM13.351 7.524l-0.008 0.001c0.084-0.017 0.171-0.027 0.261-0.027 0.342 0 0.654 0.134 0.883 0.352 0.425 0.393 0.42 0.353 0.42 3.349 0 2.919 0.003 2.888-0.34 3.269l-0.001 0.001c-0.228 0.258-0.562 0.42-0.934 0.42-0.011 0-0.022-0-0.032-0-0.391 0-0.715-0.141-0.967-0.421-0.343-0.381-0.34-0.351-0.34-3.269 0-2.915-0.003-2.889 0.336-3.264l0.002-0.002c0.176-0.214 0.427-0.364 0.72-0.41zM18.151 7.521c0.123-0.025 1.375-0.041 2.783-0.037 2.489 0.009 2.567 0.012 2.8 0.123l0.008 0.003c0.442 0.202 0.75 0.648 0.75 1.165 0 0.010-0 0.020-0 0.029l-0-0.001c0 0.010 0 0.020 0 0.030 0 0.372-0.163 0.705-0.422 0.935-0.381 0.343-0.351 0.34-3.269 0.34s-2.888 0.003-3.269-0.34c-0.279-0.251-0.421-0.576-0.421-0.963l0 0.002c-0-0.014-0.001-0.028-0.001-0.041 0-0.619 0.446-1.135 1.042-1.243zM18.151 12.321c0.123-0.025 1.375-0.041 2.783-0.037 2.489 0.009 2.567 0.012 2.8 0.123l0.008 0.003c0.442 0.202 0.75 0.648 0.75 1.165 0 0.010-0 0.020-0 0.029l-0-0.001c0 0.010 0 0.020 0 0.030 0 0.372-0.163 0.705-0.422 0.935-0.381 0.343-0.351 0.34-3.269 0.34s-2.888 0.003-3.269-0.34c-0.279-0.251-0.421-0.576-0.421-0.963l0 0.002c-0-0.014-0.001-0.028-0.001-0.041 0-0.619 0.446-1.135 1.042-1.243zM8.551 17.121c0.123-0.025 1.375-0.041 2.783-0.037 2.489 0.009 2.567 0.012 2.8 0.123l0.008 0.003c0.442 0.202 0.75 0.648 0.75 1.165 0 0.010-0 0.020-0 0.029l-0-0.001c0 0.010 0 0.020 0 0.029 0 0.372-0.163 0.705-0.422 0.935-0.381 0.343-0.351 0.34-3.269 0.34s-2.888 0.003-3.269-0.34c-0.279-0.251-0.421-0.576-0.421-0.963l0 0.002c-0-0.014-0.001-0.028-0.001-0.041 0-0.619 0.446-1.135 1.042-1.243zM18.151 17.124l-0.008 0.001c0.084-0.017 0.172-0.026 0.261-0.026 0.342 0 0.654 0.134 0.883 0.352 0.425 0.393 0.42 0.353 0.42 3.349 0 2.919 0.003 2.888-0.34 3.269l-0.001 0.001c-0.228 0.258-0.562 0.42-0.934 0.42-0.011 0-0.022-0-0.032-0-0.391 0-0.715-0.141-0.967-0.421-0.343-0.381-0.34-0.351-0.34-3.269 0-2.915-0.003-2.889 0.336-3.264l0.002-0.002c0.176-0.214 0.427-0.364 0.72-0.41zM22.951 17.124l-0.008 0.001c0.084-0.017 0.172-0.026 0.261-0.026 0.342 0 0.654 0.134 0.883 0.352 0.425 0.393 0.42 0.353 0.42 3.349 0 2.919 0.003 2.888-0.34 3.269l-0.001 0.001c-0.228 0.258-0.562 0.42-0.934 0.42-0.011 0-0.022-0-0.032-0-0.391 0-0.715-0.141-0.967-0.421-0.343-0.381-0.34-0.351-0.34-3.269 0-2.915-0.003-2.889 0.336-3.264l0.002-0.002c0.176-0.214 0.427-0.364 0.72-0.41zM8.551 21.921c0.123-0.025 1.375-0.041 2.783-0.037 2.489 0.009 2.567 0.012 2.8 0.123l0.008 0.003c0.442 0.202 0.75 0.648 0.75 1.165 0 0.010-0 0.020-0 0.029l-0-0.001c0 0.010 0 0.020 0 0.029 0 0.372-0.163 0.705-0.422 0.935-0.381 0.343-0.351 0.34-3.269 0.34s-2.888 0.003-3.269-0.34c-0.279-0.251-0.421-0.576-0.421-0.963l0 0.002c-0-0.014-0.001-0.028-0.001-0.041 0-0.619 0.446-1.135 1.042-1.243z"></path>
</symbol>
<symbol id="icon-artstation" viewBox="0 0 32 32">
<path d="M13.729 5l12.271 22 1.993-4.512c0.2-0.391 0.317-0.854 0.317-1.343 0-0.579-0.164-1.119-0.447-1.578l0.007 0.013-7.775-13.144c-0.537-0.867-1.482-1.435-2.56-1.436h-3.805zM11.512 7.177l-5.883 10.823h11.917l-6.036-10.823zM4 21l2.172 4.341c0.503 0.991 1.515 1.659 2.683 1.659 0 0 0 0 0 0h13.712l-3.347-6h-15.22z"></path>
</symbol>
<symbol id="icon-cube" viewBox="0 0 32 32">
<path d="M28.2 7.829l-11-6.020c-0.346-0.194-0.76-0.308-1.2-0.308s-0.854 0.114-1.213 0.315l0.013-0.006-11 6.020c-0.78 0.433-1.3 1.253-1.3 2.193 0 0.001 0 0.001 0 0.002v-0 11.952c0 0 0 0.001 0 0.002 0 0.941 0.519 1.76 1.287 2.187l0.013 0.006 11 6.020c0.346 0.194 0.76 0.309 1.2 0.309s0.854-0.114 1.213-0.315l-0.013 0.006 11-6.020c0.78-0.433 1.3-1.252 1.3-2.192 0-0.001 0-0.002 0-0.002v0-11.952c0-0.001 0-0.001 0-0.002 0-0.94-0.52-1.76-1.287-2.186l-0.013-0.006zM16 4.571l9 4.929-9 4.925-9-4.925 9-4.929zM5.5 12.099l9 4.925v9.584l-9-4.928v-9.581zM17.5 26.608v-9.584l9-4.925v9.581l-9 4.928z"></path>
</symbol>
<symbol id="icon-discord" viewBox="0 0 32 32">
<path d="M27.089 5.989c-2.040-0.92-4.227-1.6-6.513-1.987-0.006-0.001-0.012-0.002-0.019-0.002-0.037 0-0.069 0.020-0.086 0.049l-0 0c-0.28 0.492-0.592 1.133-0.811 1.64-1.099-0.173-2.367-0.272-3.658-0.272s-2.559 0.099-3.796 0.289l0.138-0.018c-0.287-0.66-0.562-1.198-0.865-1.719l0.042 0.079c-0.018-0.031-0.051-0.052-0.089-0.052-0.006 0-0.011 0-0.017 0.001l0.001-0c-2.285 0.387-4.472 1.067-6.513 1.988-0.018 0.008-0.032 0.020-0.042 0.036l-0 0c-4.149 6.1-5.287 12.049-4.728 17.924 0.003 0.030 0.019 0.056 0.041 0.073l0 0c2.285 1.681 4.941 3.036 7.801 3.923l0.189 0.051c0.009 0.003 0.020 0.005 0.031 0.005 0.033 0 0.062-0.015 0.081-0.039l0-0c0.617-0.825 1.164-1.701 1.635-2.617 0.007-0.013 0.011-0.029 0.011-0.046 0-0.043-0.027-0.079-0.065-0.093l-0.001-0c-0.975-0.37-1.797-0.764-2.581-1.216l0.085 0.045c-0.030-0.018-0.050-0.050-0.050-0.087 0-0.032 0.016-0.061 0.040-0.080l0-0c0.168-0.124 0.336-0.253 0.496-0.383 0.017-0.014 0.039-0.022 0.063-0.022 0.015 0 0.029 0.003 0.042 0.009l-0.001-0c5.236 2.352 10.907 2.352 16.081 0 0.013-0.006 0.027-0.010 0.043-0.010 0.024 0 0.045 0.008 0.062 0.022l-0-0c0.16 0.131 0.327 0.26 0.496 0.384 0.025 0.018 0.041 0.048 0.041 0.081 0 0.019-0.006 0.037-0.015 0.053l0-0c-0.009 0.014-0.020 0.025-0.034 0.033l-0 0c-0.797 0.459-1.627 0.847-2.497 1.169-0.039 0.014-0.066 0.051-0.066 0.094 0 0.017 0.004 0.033 0.011 0.047l-0-0.001c0.48 0.916 1.029 1.788 1.633 2.616 0.019 0.025 0.049 0.041 0.083 0.041 0.010 0 0.020-0.002 0.030-0.004l-0.001 0c3.055-0.935 5.714-2.29 8.077-4.027l-0.074 0.052c0.023-0.016 0.039-0.042 0.043-0.072l0-0c0.667-6.792-1.117-12.693-4.732-17.923-0.009-0.017-0.023-0.030-0.041-0.037l-0.001-0zM10.693 20.371c-1.576 0-2.876-1.425-2.876-3.173 0-1.749 1.275-3.173 2.876-3.173 1.613 0 2.901 1.436 2.876 3.173 0 1.749-1.275 3.173-2.876 3.173zM21.327 20.371c-1.577 0-2.876-1.425-2.876-3.173 0-1.749 1.273-3.173 2.876-3.173 1.613 0 2.901 1.436 2.876 3.173 0 1.749-1.261 3.173-2.876 3.173z"></path>
</symbol>
<symbol id="icon-email" viewBox="0 0 32 32">
<path d="M26.667 5.333h-21.333c-1.473 0-2.667 1.194-2.667 2.667v0 16c0 1.473 1.194 2.667 2.667 2.667v0h21.333c1.473 0 2.667-1.194 2.667-2.667v0-16c0-1.473-1.194-2.667-2.667-2.667v0zM26.667 11.733l-10.667 7.107-10.667-7.107v-3.337l10.667 7.111 10.667-7.111v3.337z"></path>
</symbol>
<symbol id="icon-linkedin" viewBox="0 0 32 32">
<path d="M28.267 2.667h-24.534c-0.59 0-1.066 0.476-1.066 1.066v24.534c0 0.59 0.476 1.066 1.066 1.066h24.534c0.59 0 1.066-0.476 1.066-1.066v-24.534c0-0.59-0.476-1.066-1.066-1.066zM10.577 25.39h-3.957v-12.727h3.957v12.727zM8.6 10.923c-1.266 0-2.293-1.027-2.293-2.293s1.027-2.293 2.293-2.293v0c1.266 0 2.293 1.027 2.293 2.293s-1.027 2.293-2.293 2.293v0zM25.39 25.39h-3.953v-6.19c0-1.477-0.027-3.373-2.057-3.373-2.057 0-2.373 1.606-2.373 3.266v6.297h-3.95v-12.727h3.793v1.74h0.053c0.527-1 1.817-2.056 3.744-2.056 4.006 0 4.743 2.636 4.743 6.063v6.98z"></path>
</symbol>
<symbol id="icon-mesh" viewBox="0 0 32 32">
<path d="M11.528 6.317l0.045 0.027 3.927 2.213c0.125 0.072 0.274 0.114 0.433 0.114s0.309-0.042 0.438-0.116l-0.004 0.002 3.893-2.192c0.183-0.102 0.402-0.162 0.636-0.162 0.731 0 1.324 0.593 1.324 1.324 0 0.468-0.243 0.88-0.61 1.115l-0.005 0.003-0.044 0.027-2.251 1.269c-0.134 0.077-0.223 0.22-0.223 0.383s0.089 0.306 0.221 0.382l0.002 0.001 6.073 3.427c0.125 0.072 0.274 0.114 0.433 0.114s0.309-0.042 0.438-0.116l-0.004 0.002 3.753-2.12c0.193-0.116 0.425-0.184 0.673-0.184 0.731 0 1.324 0.593 1.324 1.324 0 0.483-0.259 0.905-0.645 1.137l-0.006 0.003-0.047 0.027-2.113 1.187c-0.137 0.076-0.228 0.22-0.228 0.385s0.091 0.309 0.225 0.384l0.002 0.001 2.125 1.196c0.395 0.234 0.655 0.658 0.655 1.143 0 0.731-0.593 1.324-1.324 1.324-0.213 0-0.414-0.050-0.592-0.14l0.008 0.003-0.047-0.027-3.768-2.121c-0.125-0.072-0.274-0.114-0.433-0.114s-0.309 0.042-0.438 0.116l0.004-0.002-6.14 3.46c-0.135 0.077-0.224 0.22-0.224 0.383s0.089 0.306 0.222 0.382l0.002 0.001 2.54 1.429c0.395 0.234 0.655 0.658 0.655 1.143 0 0.731-0.593 1.324-1.324 1.324-0.213 0-0.414-0.050-0.592-0.14l0.008 0.003-0.047-0.024-4.177-2.356c-0.125-0.072-0.274-0.114-0.433-0.114s-0.309 0.042-0.438 0.116l0.004-0.002-4.215 2.377c-0.19 0.113-0.42 0.179-0.664 0.179-0.73 0-1.323-0.592-1.323-1.323 0-0.481 0.256-0.901 0.64-1.133l0.006-0.003 0.044-0.027 2.573-1.451c0.135-0.077 0.224-0.22 0.224-0.383s-0.089-0.306-0.222-0.382l-0.002-0.001-6.085-3.429c-0.125-0.072-0.274-0.114-0.433-0.114s-0.309 0.042-0.438 0.116l0.004-0.002-3.585 2.013c-0.18 0.098-0.395 0.156-0.623 0.156-0.731 0-1.324-0.593-1.324-1.324 0-0.465 0.24-0.874 0.602-1.11l0.005-0.003 0.045-0.024 1.936-1.089c0.136-0.077 0.226-0.22 0.226-0.385s-0.090-0.308-0.224-0.384l-0.002-0.001-1.933-1.089c-0.402-0.232-0.667-0.659-0.667-1.149 0-0.73 0.592-1.323 1.323-1.323 0.219 0 0.425 0.053 0.607 0.147l-0.007-0.003 0.044 0.024 3.58 2.020c0.125 0.072 0.274 0.114 0.433 0.114s0.309-0.042 0.438-0.116l-0.004 0.002 6.143-3.461c0.135-0.077 0.225-0.22 0.225-0.384s-0.090-0.307-0.223-0.383l-0.002-0.001-2.281-1.284c-0.418-0.228-0.698-0.665-0.698-1.167 0-0.731 0.593-1.324 1.324-1.324 0.229 0 0.445 0.058 0.634 0.161l-0.007-0.003zM15.497 12.083l-6.145 3.453c-0.138 0.076-0.23 0.221-0.23 0.387s0.092 0.311 0.228 0.386l0.002 0.001 6.084 3.427c0.125 0.072 0.274 0.114 0.433 0.114s0.309-0.042 0.438-0.116l-0.004 0.002 6.141-3.46c0.136-0.077 0.226-0.22 0.226-0.385s-0.090-0.308-0.224-0.384l-0.002-0.001-6.077-3.427c-0.125-0.072-0.274-0.114-0.433-0.114s-0.309 0.042-0.438 0.116l0.004-0.002-0.003 0.003z"></path>
</symbol>
<symbol id="icon-model" viewBox="0 0 32 32">
<path d="M21.256 14.5c0.636-1.763 2.295-3 4.243-3 2.485 0 4.5 2.015 4.5 4.5s-2.015 4.5-4.5 4.5c-1.948 0-3.606-1.237-4.233-2.969l-0.010-0.031h-4.012c-0.636 1.764-2.295 3.002-4.243 3.002-0.277 0-0.548-0.025-0.811-0.073l0.027 0.004-2.157 3.815c0.586 0.752 0.94 1.711 0.94 2.752 0 2.485-2.015 4.5-4.5 4.5s-4.5-2.015-4.5-4.5c0-2.485 2.015-4.5 4.5-4.5 0.368 0 0.725 0.044 1.067 0.127l-0.031-0.006 2.071-3.665c-0.688-0.786-1.107-1.822-1.107-2.956s0.419-2.17 1.112-2.961l-0.005 0.005-2.071-3.664c-0.311 0.077-0.668 0.121-1.036 0.121-2.485 0-4.5-2.015-4.5-4.5s2.015-4.5 4.5-4.5c2.485 0 4.5 2.015 4.5 4.5 0 1.041-0.354 2-0.947 2.763l0.008-0.010 2.159 3.815c0.235-0.044 0.506-0.068 0.782-0.068 1.948 0 3.607 1.238 4.233 2.97l0.010 0.031h4.012zM5 5c0 0.828 0.672 1.5 1.5 1.5s1.5-0.672 1.5-1.5v0c0-0.828-0.672-1.5-1.5-1.5s-1.5 0.672-1.5 1.5v0zM13 14.5c-0.828 0-1.5 0.672-1.5 1.5s0.672 1.5 1.5 1.5v0c0.828 0 1.5-0.672 1.5-1.5s-0.672-1.5-1.5-1.5v0zM25.5 14.5c-0.828 0-1.5 0.672-1.5 1.5s0.672 1.5 1.5 1.5v0c0.828 0 1.5-0.672 1.5-1.5s-0.672-1.5-1.5-1.5v0zM6.5 25.5c-0.828 0-1.5 0.672-1.5 1.5s0.672 1.5 1.5 1.5v0c0.828 0 1.5-0.672 1.5-1.5s-0.672-1.5-1.5-1.5v0z"></path>
</symbol>
<symbol id="icon-accordion" viewBox="0 0 32 32">
<path d="M30 18h-12v12h-4v-12h-12v-4h12v-12h4v12h12v4z"></path>
</symbol>
<symbol id="icon-phone" viewBox="0 0 32 32">
<path d="M6.227 3.924l-3.395 7.92c-0.051 0.116-0.081 0.251-0.081 0.393 0 0.276 0.112 0.526 0.293 0.707v0l16.012 16.012c0.181 0.181 0.431 0.293 0.707 0.293 0.142 0 0.277-0.030 0.4-0.083l-0.006 0.003 7.92-3.395c0.36-0.157 0.607-0.509 0.607-0.92 0-0.276-0.112-0.526-0.293-0.707v0l-4.34-4.337c-0.181-0.181-0.431-0.293-0.707-0.293-0.163 0-0.317 0.039-0.454 0.109l0.006-0.003-4.068 2.035-8.484-8.484 2.032-4.068c0.067-0.13 0.106-0.285 0.106-0.448 0-0.276-0.112-0.526-0.293-0.707l-4.337-4.341c-0.181-0.18-0.43-0.291-0.705-0.291-0.41 0-0.762 0.246-0.916 0.599l-0.003 0.006z"></path>
</symbol>
<symbol id="icon-play" viewBox="0 0 32 32">
<path d="M16 2c-7.732 0-14 6.268-14 14s6.268 14 14 14v0c7.732 0 14-6.268 14-14s-6.268-14-14-14v0zM23.447 16.895l-12 6c-0.13 0.067-0.284 0.105-0.447 0.105-0.552 0-1-0.448-1-1 0-0 0-0 0-0.001v0-12c0-0.552 0.448-0.999 1-0.999 0.163 0 0.317 0.039 0.453 0.108l-0.006-0.003 12 6c0.33 0.168 0.552 0.505 0.552 0.894s-0.222 0.726-0.546 0.891l-0.006 0.003z"></path>
</symbol>
<symbol id="icon-shadow" viewBox="0 0 32 32">
<path d="M4 2.667c-0.736 0-1.333 0.597-1.333 1.333v0 18.667c0 0.736 0.597 1.333 1.333 1.333v0h4v4c0 0.736 0.597 1.333 1.333 1.333v0h18.667c0.736 0 1.333-0.597 1.333-1.333v0-18.667c0-0.736-0.597-1.333-1.333-1.333v0h-4v-4c0-0.736-0.597-1.333-1.333-1.333v0h-18.667zM24 15.413l2.667 2.667v3.84l-2.667-2.667v-3.84zM24 12.587v-1.92h2.667v4.587l-2.667-2.667zM24 22.667v-0.587l2.667 2.667v1.92h-1.92l-2.667-2.667h0.587c0.736 0 1.333-0.597 1.333-1.333v0zM19.253 24l2.667 2.667h-3.84l-2.667-2.667h3.84zM12.587 24l2.667 2.667h-4.587v-2.667h1.92zM5.333 21.333v-16h16v16h-16z"></path>
</symbol>
<symbol id="icon-telegram" viewBox="0 0 32 32">
<path d="M25.904 5.488c0.228-0.098 0.493-0.155 0.772-0.155 0.467 0 0.897 0.16 1.238 0.429l-0.004-0.003c0.462 0.366 0.756 0.927 0.756 1.557 0 0.113-0.009 0.223-0.027 0.33l0.002-0.012-3.009 18.161c-0.292 1.752-2.223 2.756-3.837 1.884-1.351-0.731-3.357-1.855-5.161-3.028-0.903-0.588-3.667-2.469-3.327-3.808 0.292-1.144 4.936-5.445 7.589-8.003 1.041-1.004 0.567-1.584-0.664-0.66-3.053 2.293-7.957 5.784-9.579 6.765-1.431 0.867-2.176 1.013-3.067 0.867-1.627-0.269-3.136-0.687-4.368-1.195-1.663-0.687-1.583-2.963 0-3.625l22.687-9.505z"></path>
</symbol>
<symbol id="icon-whatsapp" viewBox="0 0 32 32">
<path d="M16.001 2.667c7.364 0 13.333 5.969 13.333 13.333s-5.969 13.333-13.333 13.333c-0.006 0-0.014 0-0.022 0-2.463 0-4.77-0.671-6.747-1.84l0.062 0.034-6.621 1.807 1.803-6.624c-1.136-1.916-1.808-4.223-1.808-6.687 0-0.008 0-0.016 0-0.023v0.001c0-7.364 5.969-13.333 13.333-13.333zM11.457 9.733l-0.267 0.011c-0.183 0.011-0.352 0.059-0.503 0.137l0.007-0.003c-0.15 0.086-0.279 0.187-0.392 0.303l-0.001 0.001c-0.16 0.151-0.251 0.281-0.348 0.408-0.471 0.607-0.755 1.38-0.755 2.219 0 0.006 0 0.013 0 0.019v-0.001c0.003 0.653 0.173 1.289 0.44 1.884 0.545 1.203 1.443 2.476 2.627 3.656 0.285 0.284 0.565 0.569 0.867 0.835 1.416 1.252 3.136 2.196 5.032 2.708l0.088 0.020 0.757 0.116c0.247 0.013 0.493-0.005 0.741-0.017 0.41-0.022 0.789-0.133 1.125-0.315l-0.014 0.007c0.173-0.089 0.345-0.187 0.511-0.293 0 0 0.057-0.037 0.167-0.12 0.18-0.133 0.291-0.228 0.44-0.384 0.111-0.115 0.207-0.249 0.28-0.403 0.104-0.217 0.208-0.632 0.251-0.977 0.032-0.264 0.023-0.408 0.019-0.497-0.005-0.143-0.124-0.291-0.253-0.353l-0.776-0.348s-1.16-0.505-1.869-0.828c-0.069-0.031-0.149-0.051-0.233-0.055l-0.002-0c-0.020-0.002-0.042-0.003-0.065-0.003-0.17 0-0.324 0.066-0.439 0.173l0-0c-0.007-0.003-0.096 0.073-1.060 1.241-0.086 0.115-0.222 0.188-0.374 0.188-0.041 0-0.081-0.005-0.12-0.015l0.003 0.001c-0.101-0.027-0.185-0.057-0.267-0.093l0.012 0.005c-0.165-0.069-0.223-0.096-0.336-0.144-0.805-0.356-1.498-0.805-2.109-1.345l0.009 0.007c-0.168-0.147-0.324-0.307-0.484-0.461-0.515-0.494-0.964-1.048-1.339-1.655l-0.021-0.036-0.079-0.127c-0.053-0.079-0.099-0.169-0.133-0.265l-0.003-0.009c-0.051-0.196 0.081-0.353 0.081-0.353s0.324-0.355 0.475-0.547c0.147-0.187 0.271-0.368 0.351-0.497 0.157-0.253 0.207-0.513 0.124-0.715-0.373-0.912-0.76-1.82-1.157-2.721-0.079-0.179-0.312-0.307-0.524-0.332-0.046-0.006-0.12-0.014-0.195-0.020l-0.021-0.001c-0.067-0.004-0.145-0.006-0.224-0.006-0.11 0-0.22 0.004-0.328 0.012l0.015-0.001 0.268-0.011 0.001 0.001z"></path>
</symbol>
</defs>
</svg>
